<svg width="64" height="65" viewBox="0 0 64 65" fill="none" xmlns="http://www.w3.org/2000/svg">
<path d="M48.9244 36.15L43.2676 32.0125C42.4076 31.3818 41.3565 31.1334 40.3053 31.2958C39.2542 31.4583 38.3369 32.022 37.7063 32.882L35.9576 35.2805C35.9385 35.3091 35.9194 35.3378 35.9003 35.3665C35.6327 35.4047 34.2185 35.4334 30.8359 32.7387L30.4727 32.4807C26.9372 30.1301 26.5359 28.7827 26.4881 28.5056C26.5072 28.477 26.5359 28.4483 26.555 28.4196L28.3037 26.0212C29.5936 24.2534 29.2114 21.7594 27.4341 20.4599L21.6721 16.2555C19.9044 14.9559 17.4104 15.3477 16.1109 17.125L14.3431 19.5521C12.6327 21.9028 12.1835 24.9892 13.1486 27.8081C14.5533 31.8883 18.0793 36.1978 23.6597 40.6315C23.7552 40.7462 23.8699 40.8418 23.9941 40.9373C24.1279 41.0329 24.2712 41.1284 24.405 41.224C24.5388 41.3291 24.6726 41.4246 24.8063 41.5298C24.9306 41.6253 25.0643 41.7018 25.1981 41.7591C31.1225 45.7151 36.3016 47.7695 40.6207 47.8555C40.678 47.8555 40.7449 47.8555 40.8022 47.8555C43.6211 47.8555 46.3158 46.4699 48.0166 44.1288L49.7844 41.7018C50.4151 40.8418 50.6635 39.7907 50.5011 38.7395C50.3482 37.698 49.7844 36.7711 48.9244 36.15ZM46.7075 39.4562L44.9398 41.8833C43.9269 43.2689 42.3024 44.062 40.7067 44.0333C38.1267 43.976 33.6165 42.9057 26.6792 38.1376C20.019 32.9776 17.6206 29.0121 16.7797 26.5754C16.2255 24.9605 16.474 23.1354 17.4391 21.8168L19.2068 19.3897C19.2546 19.3228 19.3502 19.3037 19.4266 19.3515L25.1886 23.5559C25.2555 23.6037 25.2746 23.7088 25.2268 23.7757L23.5546 26.0594C23.0481 26.6136 22.599 27.5501 22.6755 28.7445C22.8284 30.9518 24.6821 33.2165 28.2941 35.6149L28.5139 35.7773C31.9634 38.5293 34.6867 39.6091 36.8367 39.0835C37.9929 38.7969 38.7478 38.0802 39.1205 37.4304L40.7927 35.1467C40.8405 35.0894 40.9551 35.0702 41.0125 35.1085L46.6789 39.246C46.7362 39.2747 46.7458 39.3893 46.7075 39.4562Z" id='fill'/>
<path d="M31.8889 0C14.5648 0 0.460938 14.0943 0.460938 31.428C0.460938 38.7284 2.99314 45.7612 7.60844 51.3799L2.30515 61.7093C1.95159 62.3878 2.04715 63.2096 2.53448 63.802C2.90714 64.2416 3.44225 64.49 4.00602 64.49C4.18758 64.49 4.36913 64.4613 4.55069 64.4136L19.0273 60.1136C23.0788 61.9387 27.3979 62.856 31.8794 62.856C49.2035 62.856 63.3074 48.7617 63.3074 31.428C63.3074 14.0943 49.213 0 31.8889 0ZM31.8889 59.0243C27.7323 59.0243 23.7286 58.126 20.0115 56.3392C19.5815 56.1385 19.0941 56.1003 18.645 56.2341L7.76133 59.4734L11.6026 51.9819C11.9657 51.2748 11.8511 50.4243 11.3255 49.8319C6.78667 44.7675 4.28313 38.222 4.28313 31.428C4.28313 16.2061 16.667 3.8222 31.8889 3.8222C47.1108 3.8222 59.4852 16.2061 59.4852 31.428C59.4852 46.6499 47.1108 59.0243 31.8889 59.0243Z" id='fill'/>
</svg>
