<?xml version="1.0" encoding="UTF-8"?>
<!DOCTYPE svg PUBLIC "-//W3C//DTD SVG 1.1//EN" "http://www.w3.org/Graphics/SVG/1.1/DTD/svg11.dtd">
<!-- Creator: CorelDRAW 2018 (64-Bit) -->
<svg xmlns="http://www.w3.org/2000/svg" xml:space="preserve" width="37.3004mm" height="17.7039mm" version="1.1" style="shape-rendering:geometricPrecision; text-rendering:geometricPrecision; image-rendering:optimizeQuality; fill-rule:evenodd; clip-rule:evenodd"
viewBox="0 0 3730.04 1770.39"
 xmlns:xlink="http://www.w3.org/1999/xlink">
 <defs>
  <style type="text/css">
   <![CDATA[
    .fil1 {fill:#fff}
    .fil0 {fill:#7424D1}
    .fil3 {fill:#fff;fill-rule:nonzero}
    .fil2 {fill:#fff;fill-rule:nonzero}
   ]]>
  </style>
 </defs>
 <g id="Слой_x0020_1">
  <metadata id="CorelCorpID_0Corel-Layer"/>
  <path class="fil0" d="M-0 1252.5l1237.83 4.34 9.13 -107.8c-15.72,-90.87 -101.96,-53.15 -275.92,-53.29l-196.13 1.49c-125.91,1.35 -48.05,-69.01 -70.51,-329.67 -53.3,-25.9 -97.61,-69.16 -163.79,-76.35l-3.14 392.1c-57.34,22.46 -287,13.33 -357.67,6.44l-2.99 -623.71c-27.99,-18.26 -150.61,-86.83 -174.12,-90.13l-2.69 876.57 0 0.01z"/>
  <path class="fil1" d="M-0 173.07l629.24 349.73 428.33 -229.06c5.24,126.2 -17.21,556.48 8.24,639.72l176.66 1.05 5.09 -931.82c-33.69,4.79 -47.31,14.97 -72.76,31 -31.74,19.91 -45.21,25.6 -79.2,43.42l-466.2 261.99c-85.49,-26.95 -556.49,-318.14 -624.91,-339.1l-4.34 173.07 -0.15 0z"/>
  <path class="fil2" d="M1841.12 1259.5l-0.47 -326.36 -19.58 0 -146 252.23 -146.09 -252.23 -20.04 0 0 326.36 23.31 0 0 -278.34 136.68 234.97 11.74 0 136.68 -235.91 0.46 279.28 23.31 0zm368.32 2.33c96.98,0 169.71,-70.4 169.71,-165.52 0,-95.11 -72.73,-165.51 -169.71,-165.51 -97.44,0 -169.7,70.87 -169.7,165.51 0,94.65 72.26,165.52 169.7,165.52zm0 -21.91c-83.46,0 -145.93,-61.08 -145.93,-143.61 0,-82.52 62.47,-143.6 145.93,-143.6 82.99,0 145.46,61.08 145.46,143.6 0,82.53 -62.47,143.61 -145.46,143.61zm610.52 -306.78l0 283.46 -221.92 -283.46 -20.05 0 0 326.36 23.78 0 0 -283.47 222.39 283.47 19.59 0 0 -326.36 -23.79 0zm277.64 304.91l0 -133.81 173.91 0 0 -20.98 -173.91 0 0 -128.68 194.42 0 0 -21.44 -218.19 0 0 326.36 225.18 0 0 -21.45 -201.41 0zm632.44 -304.91l-24.71 0 -117.95 192.08 -117.96 -192.08 -26.11 0 131.48 213.99 0 112.37 23.78 0 0 -112.37 131.47 -213.99z"/>
  <path class="fil2" d="M2019.48 356.15l0 -101.68 -413.71 0 0 547.45 126.7 0 0 -199.42 253.38 0 0 -101.68 -253.38 0 0 -144.67 287.01 0zm487.34 445.77l132.95 0 -244.78 -547.45 -125.14 0 -244 547.45 129.82 0 48.49 -117.31 254.17 0 48.49 117.31zm-261.99 -213.51l86.81 -209.59 86.81 209.59 -173.62 0zm646.88 222.89c156.41,0 232.27,-78.2 232.27,-169.58 0,-200.98 -318.31,-131.25 -318.31,-232.27 0,-34.54 28.95,-62.69 104.02,-62.69 48.49,0 100.89,14.07 151.72,43.01l39.1 -96.2c-50.83,-32.06 -121.21,-48.49 -190.03,-48.49 -155.64,0 -230.72,77.44 -230.72,170.63 0,203.34 318.31,132.95 318.31,235.4 0,33.5 -30.51,58.53 -105.59,58.53 -65.69,0 -134.51,-23.47 -180.65,-56.96l-43.02 95.28c48.49,37.54 136.09,63.34 222.9,63.34zm439.62 -9.38l126.69 0 0 -444.21 175.19 0 0 -103.24 -477.06 0 0 103.24 175.18 0 0 444.21z"/>
  <path class="fil3" d="M112.41 1710.63c30.65,0 58.21,-10.22 77.1,-30.35l-9.91 -10.22c-18.58,18.27 -41.18,26.01 -66.57,26.01 -55.43,0 -97.24,-40.87 -97.24,-95.37 0,-54.5 41.81,-95.38 97.24,-95.38 25.39,0 47.99,7.44 66.57,25.71l9.91 -10.22c-18.89,-20.13 -46.45,-30.04 -77.1,-30.04 -64.41,0 -112.41,46.76 -112.41,109.93 0,63.17 48,109.93 112.41,109.93z"/>
  <path id="1" class="fil3" d="M403.44 1547.44l0 86.08c0,38.4 -22.61,62.86 -59.15,62.86 -33.75,0 -53.26,-19.19 -53.26,-55.73l0 -93.21 -15.48 0 0 94.44c0,45.21 26.32,68.44 67.5,68.44 28.49,0 50.48,-13.32 61,-35.92l0 34.68 14.87 0 0 -161.64 -15.48 0z"/>
  <path id="2" class="fil3" d="M545.21 1582.74l0 -35.3 -14.87 0 0 161.64 15.49 0 0 -84.23c0,-39.94 21.36,-63.79 57.28,-63.79 1.24,0 2.48,0.31 3.72,0.31l0 -15.17c-30.35,0 -51.71,13 -61.62,36.54z"/>
  <path id="3" class="fil3" d="M710.21 1582.74l0 -35.3 -14.87 0 0 161.64 15.49 0 0 -84.23c0,-39.94 21.36,-63.79 57.28,-63.79 1.24,0 2.48,0.31 3.72,0.31l0 -15.17c-30.35,0 -51.71,13 -61.62,36.54z"/>
  <path id="4" class="fil3" d="M995.66 1627.64c0,-48 -32.82,-81.44 -77.1,-81.44 -44.28,0 -77.42,34.06 -77.42,82.06 0,48 34.38,82.06 83.3,82.06 24.47,0 46.76,-8.98 61,-26.32l-8.98 -10.22c-12.38,15.17 -31.27,22.6 -51.71,22.6 -38.71,0 -66.89,-26.01 -68.43,-64.41l139.03 0c0,-1.54 0.31,-3.09 0.31,-4.33zm-77.1 -67.82c34.37,0 59.76,25.09 61.93,60.08l-123.86 0c2.47,-35.3 27.56,-60.08 61.93,-60.08z"/>
  <path id="5" class="fil3" d="M1168.41 1546.2c-30.66,0 -53.26,13.62 -64.1,36.23l0 -34.99 -14.87 0 0 161.64 15.49 0 0 -86.09c0,-38.39 23.22,-62.86 61.31,-62.86 32.82,0 52.33,19.2 52.33,55.74l0 93.21 15.49 0 0 -94.45c0,-45.21 -26.33,-68.43 -65.65,-68.43z"/>
  <path id="6" class="fil3" d="M1408.03 1710.32c25.71,0 48,-10.22 61.32,-29.73l-11.46 -8.36c-11.77,16.41 -29.73,24.15 -49.86,24.15 -38.08,0 -65.95,-27.25 -65.95,-68.12 0,-40.88 27.87,-68.13 65.95,-68.13 20.13,0 38.09,7.75 49.86,24.16l11.46 -8.36c-13.32,-19.82 -35.61,-29.73 -61.32,-29.73 -47.37,0 -81.75,33.75 -81.75,82.06 0,48 34.38,82.06 81.75,82.06z"/>
  <path id="7" class="fil3" d="M1672.74 1547.44l-64.72 144.61 -64.72 -144.61 -16.41 0 72.77 161.02 -8.67 19.51c-9.91,21.99 -20.75,28.8 -35.61,28.8 -12.08,0 -21.68,-4.03 -30.04,-12.7l-7.74 11.77c9.29,9.6 22.91,14.55 37.47,14.55 21.36,0 37.47,-9.6 50.47,-39.32l82.99 -183.63 -15.79 0z"/>
  <path id="8" class="fil3" d="M2064.09 1627.64c0,-48 -32.82,-81.44 -77.1,-81.44 -44.28,0 -77.42,34.06 -77.42,82.06 0,48 34.38,82.06 83.3,82.06 24.47,0 46.76,-8.98 61,-26.32l-8.98 -10.22c-12.38,15.17 -31.27,22.6 -51.71,22.6 -38.71,0 -66.89,-26.01 -68.43,-64.41l139.03 0c0,-1.54 0.31,-3.09 0.31,-4.33zm-77.1 -67.82c34.37,0 59.76,25.09 61.93,60.08l-123.86 0c2.47,-35.3 27.56,-60.08 61.93,-60.08z"/>
  <polygon id="9" class="fil3" points="2274.3,1709.08 2209.27,1625.78 2269.97,1547.44 2252.62,1547.44 2200.6,1614.63 2148.58,1547.44 2130.93,1547.44 2191.62,1625.78 2127.52,1709.08 2145.17,1709.08 2200.6,1636.93 2256.03,1709.08 "/>
  <path id="10" class="fil3" d="M2417.93 1710.32c25.71,0 48,-10.22 61.32,-29.73l-11.46 -8.36c-11.77,16.41 -29.73,24.15 -49.86,24.15 -38.08,0 -65.95,-27.25 -65.95,-68.12 0,-40.88 27.87,-68.13 65.95,-68.13 20.13,0 38.09,7.75 49.86,24.16l11.46 -8.36c-13.32,-19.82 -35.61,-29.73 -61.32,-29.73 -47.37,0 -81.75,33.75 -81.75,82.06 0,48 34.38,82.06 81.75,82.06z"/>
  <path id="11" class="fil3" d="M2647.65 1546.2c-30.04,0 -52.34,13 -63.48,34.99l0 -101.88 -15.49 0 0 229.77 15.49 0 0 -86.09c0,-38.39 23.22,-62.86 61.31,-62.86 32.82,0 52.33,19.2 52.33,55.74l0 93.21 15.49 0 0 -94.45c0,-45.21 -26.33,-68.43 -65.65,-68.43z"/>
  <path id="12" class="fil3" d="M2877.36 1546.2c-25.08,0 -48.61,8.67 -64.71,22.91l7.74 11.15c13.31,-12.08 33.44,-20.44 55.74,-20.44 31.58,0 47.99,16.11 47.99,46.14l0 13.01 -55.43 0c-44.9,0 -60.38,20.75 -60.38,45.21 0,27.56 21.99,46.14 58.22,46.14 28.18,0 47.99,-11.46 58.21,-30.04l0 28.8 14.87 0 0 -102.5c0,-39.94 -22.3,-60.38 -62.25,-60.38zm-8.67 151.42c-28.49,0 -44.9,-13 -44.9,-34.06 0,-18.58 11.77,-32.51 45.21,-32.51l55.12 0 0 30.34c-9.29,23.23 -28.18,36.23 -55.43,36.23z"/>
  <path id="13" class="fil3" d="M3128.14 1546.2c-30.66,0 -53.26,13.62 -64.1,36.23l0 -34.99 -14.87 0 0 161.64 15.49 0 0 -86.09c0,-38.39 23.22,-62.86 61.31,-62.86 32.82,0 52.33,19.2 52.33,55.74l0 93.21 15.49 0 0 -94.45c0,-45.21 -26.33,-68.43 -65.65,-68.43z"/>
  <path id="14" class="fil3" d="M3434.34 1547.44l0 36.54c-13.01,-24.16 -38.09,-37.78 -67.82,-37.78 -45.82,0 -80.51,32.2 -80.51,78.34 0,46.14 34.69,78.66 80.51,78.66 29.11,0 53.89,-13.32 67.2,-36.85l0 27.25c0,43.04 -20.13,62.86 -63.17,62.86 -26.01,0 -49.24,-8.67 -65.34,-23.54l-8.36 11.77c16.41,16.41 44.59,25.7 74.01,25.7 52.02,0 78.34,-24.46 78.34,-78.65l0 -144.3 -14.86 0zm-66.58 141.82c-38.08,0 -65.95,-26.63 -65.95,-64.72 0,-38.09 27.87,-64.41 65.95,-64.41 38.4,0 66.27,26.32 66.27,64.41 0,38.09 -27.87,64.72 -66.27,64.72z"/>
  <path id="15" class="fil3" d="M3697.5 1627.64c0,-48 -32.82,-81.44 -77.1,-81.44 -44.28,0 -77.42,34.06 -77.42,82.06 0,48 34.38,82.06 83.3,82.06 24.47,0 46.76,-8.98 61,-26.32l-8.98 -10.22c-12.38,15.17 -31.27,22.6 -51.71,22.6 -38.71,0 -66.89,-26.01 -68.43,-64.41l139.03 0c0,-1.54 0.31,-3.09 0.31,-4.33zm-77.1 -67.82c34.37,0 59.76,25.09 61.93,60.08l-123.86 0c2.47,-35.3 27.56,-60.08 61.93,-60.08z"/>
 </g>
</svg>
