<svg width="1199" height="566" viewBox="0 0 1199 566" fill="none" xmlns="http://www.w3.org/2000/svg">
<path d="M883.933 79.9999C865.933 83.3332 852.067 90.2666 842.333 100.8C834.467 109.333 831.267 117.2 830.6 130.133C829.8 144.4 832.467 153.467 839.8 161.867C850.067 173.6 860.2 178.133 894.333 186.667C924.733 194.267 931.667 198.4 931.667 209.6C931.667 227.333 899.267 233.2 865.133 221.867C859.533 220 851.667 216.533 847.533 214L839.933 209.6L833.267 224.533L826.6 239.333L829.533 241.867C834.067 245.867 850.067 252.8 862.333 256C878.333 260.133 905.933 261.067 921 258.133C949.4 252.533 967.933 236.267 971.4 213.867C974.2 196.267 968.467 180.8 955.267 171.2C945.533 164 937.8 161.067 909.533 154C876.467 145.733 869.4 141.2 870.733 129.6C872.067 117.6 882.467 112 903.667 112C917.933 112 929.933 114.667 943.4 120.667C947.933 122.667 952.067 124.133 952.333 123.733C952.733 123.467 955.667 116.8 958.867 108.933L964.867 94.6666L961.933 92.6666C956.6 89.1999 946.6 85.3332 936.067 82.5332C924.067 79.4666 895.133 77.9999 883.933 79.9999Z" fill="white"/>
<path d="M485 169.333V257.333H505.667H526.333V225.333V193.333H567H607.667V177.333V161.333H567H526.333V138V114.667H572.333H618.333V97.9999V81.3332H551.667H485V169.333Z" fill="white"/>
<path d="M696.6 85.5999C695.533 87.9999 678.333 126.533 658.333 171.333C638.333 216 621.667 253.733 621.4 254.933C620.733 257.2 622.333 257.333 641.267 257.333H661.8L669.267 238.933L676.733 220.667L717.933 220.267L759 220L766.2 237.6C770.067 247.333 773.8 255.733 774.333 256.4C774.733 256.933 784.6 257.2 795.933 257.067L816.733 256.667L777.667 169.333L738.6 81.9999L718.467 81.5999L698.333 81.1999L696.6 85.5999ZM732.2 155.6C739.267 172.533 745 187.067 745 187.867C745 188.933 736.2 189.333 717.533 189.333C702.467 189.333 690.333 188.8 690.6 188.267C701.133 161.6 717.8 122.933 718.467 123.733C719 124.267 725.267 138.533 732.2 155.6Z" fill="white"/>
<path d="M982.333 97.9999V114.667H1010.33H1038.33V186V257.333H1059H1079.67V186V114.667H1107.67H1135.67V97.9999V81.3332H1059H982.333V97.9999Z" fill="white"/>
<path d="M485.333 351.716V403.849H488.667H492V359.449C492.133 321.982 492.4 315.582 493.867 317.582C494.933 318.916 504.933 335.849 516.133 355.316C529.2 377.716 537.333 390.382 538.533 390.249C539.6 389.982 550 373.182 561.867 352.782L583.333 315.716L583.733 359.849L584 403.849H588H592V351.849V299.849H588.4C584.933 299.982 582.933 302.916 562 339.316C549.6 361.049 539.067 378.916 538.667 379.182C538.267 379.449 527.733 361.849 515.2 340.116C495.2 305.449 491.867 300.516 488.8 300.116L485.333 299.716V351.716Z" fill="white"/>
<path d="M678.144 300.667C662.41 304.933 650.41 314.667 643.744 328.667C638.677 339.2 637.477 357.2 641.077 368.133C651.344 399.467 685.877 413.467 717.61 399.333C740.81 388.933 752.544 360.933 744.544 335.067C736.41 308.4 706.677 293.067 678.144 300.667ZM709.744 308.667C722.41 313.067 732.944 323.867 737.344 336.8C740.544 346.267 739.21 364 734.677 372.933C730.277 381.333 723.21 388.533 714.41 393.2C708.41 396.4 706.41 396.667 693.077 396.667C678.81 396.667 678.144 396.533 669.877 392C643.744 377.867 638.144 342.533 658.544 320C663.877 314.133 674.144 308.533 683.077 306.667C690.277 305.2 702.544 306.133 709.744 308.667Z" fill="white"/>
<path d="M794.05 351.782V403.782H798.05H802.05L802.317 358.982L802.717 314.049L837.917 358.982C866.45 395.382 873.65 403.782 876.183 403.782H879.383V351.782V299.782H875.383H871.383L871.117 344.182L870.717 388.716L836.05 344.316C805.65 305.382 800.983 299.916 797.783 299.782H794.05V351.782Z" fill="white"/>
<path d="M926.383 351.782V403.782H963.05H999.717V400.449V397.116H967.05H934.383V375.782V354.449H962.383H990.383V351.116V347.782H962.383H934.383V327.116V306.449H965.717H997.05V303.116V299.782H961.717H926.383V351.782Z" fill="white"/>
<path d="M1047.53 302.449C1048.33 304.049 1057.8 319.382 1068.33 336.582L1087.53 367.782V385.782V403.782H1091.53H1095.53V385.649V367.382L1114.47 336.582C1124.87 319.649 1134.2 304.449 1135.27 302.716C1137.13 299.916 1137 299.782 1133.13 299.782C1129.27 299.782 1128.2 301.249 1110.73 329.782C1100.6 346.316 1092.07 359.782 1091.67 359.782C1091.27 359.782 1082.73 346.449 1072.73 330.049C1055.67 302.182 1054.33 300.449 1050.33 300.049C1046.33 299.649 1046.07 299.782 1047.53 302.449Z" fill="white"/>
<path d="M955.121 509.93C955.121 523.648 955.607 531.781 956.335 531.781C957.063 531.781 957.549 527.775 957.549 522.07C957.549 510.173 959.491 505.56 965.197 504.103C969.81 502.889 975.758 504.225 977.943 507.138C978.793 508.473 979.4 513.329 979.4 520.492C979.4 529.718 979.764 531.781 981.221 531.781C982.678 531.781 983.042 529.839 983.042 521.706C983.042 510.537 980.857 504.346 975.758 501.675C971.752 499.612 963.74 500.826 960.341 504.103L957.549 506.653V497.427C957.549 491.964 957.063 488.079 956.335 488.079C955.607 488.079 955.121 496.213 955.121 509.93Z" fill="white"/>
<path d="M75.0056 490.386C68.9358 491.6 65.9009 493.542 62.1377 498.519C55.2181 507.502 57.5246 521.706 66.7507 528.261C72.4562 532.388 84.96 532.874 90.5441 529.354C95.8855 526.076 94.4288 524.134 88.7232 527.047C76.0981 533.481 61.5307 525.226 61.2879 511.508C61.1665 500.947 67.479 494.028 78.1618 493.178C83.139 492.814 85.5669 493.178 88.8446 495.12C91.2725 496.577 93.4576 497.184 93.8218 496.577C94.6716 495.241 87.3879 490.507 84.4744 490.507C83.3818 490.507 81.8037 490.264 80.8325 490.021C79.9828 489.779 77.3121 489.9 75.0056 490.386Z" fill="white"/>
<path d="M346.931 492.935C343.775 496.091 343.896 499.733 347.052 504.953C349.48 508.959 349.48 509.202 347.417 510.294C336.977 516.121 337.098 528.625 347.538 531.296C352.394 532.51 361.377 531.053 364.048 528.747C366.233 526.561 366.476 526.683 369.389 529.354C373.274 532.995 374.973 531.539 371.21 527.533C368.782 524.862 368.661 524.255 369.996 520.977C370.724 519.035 371.21 516.364 370.846 515.15C370.482 513.451 369.996 513.815 368.782 516.85C368.054 519.035 366.961 520.856 366.597 520.856C366.111 520.856 363.319 518.307 360.163 515.272L354.457 509.687L359.192 505.074C364.29 500.219 365.019 497.427 361.984 493.178C359.435 489.536 350.451 489.414 346.931 492.935ZM360.042 495.12C360.77 496.213 361.498 497.548 361.498 498.155C361.498 500.097 353.122 507.745 351.787 506.895C349.48 505.439 346.81 498.883 347.538 496.455C349.116 491.721 356.643 490.871 360.042 495.12ZM358.099 516.85C361.256 520.006 363.926 523.284 363.926 524.134C363.926 526.804 358.585 529.354 353.001 529.354C342.439 529.354 338.676 521.463 345.838 514.665C347.902 512.722 350.209 511.144 350.937 511.144C351.665 511.144 354.943 513.694 358.099 516.85Z" fill="white"/>
<path d="M526.596 497.184C526.596 499.612 525.989 500.219 523.561 500.219C521.619 500.219 520.526 500.947 520.526 502.039C520.526 503.132 521.619 503.86 523.561 503.86C526.596 503.86 526.596 503.86 526.596 515.879C526.596 525.226 527.081 528.382 528.538 529.839C530.602 532.024 537.157 532.388 539.949 530.567C542.013 529.232 541.042 528.989 535.943 529.353C529.995 529.718 529.024 527.775 529.024 515.272V503.86H533.88C537.4 503.86 538.735 503.375 538.735 502.039C538.735 500.704 537.4 500.219 533.88 500.219C529.509 500.219 529.024 499.854 529.024 497.184C529.024 495.484 528.538 494.149 527.81 494.149C527.203 494.149 526.596 495.484 526.596 497.184Z" fill="white"/>
<path d="M102.441 501.068C102.077 501.433 101.713 506.167 101.713 511.387C101.713 521.827 103.776 528.382 107.539 530.446C111.667 532.631 119.8 532.024 123.685 529.232L127.206 526.804V529.232C127.206 530.689 127.812 531.781 128.419 531.781C129.148 531.781 129.633 525.712 129.633 516C129.633 506.288 129.148 500.219 128.419 500.219C127.691 500.219 127.206 504.103 127.206 509.323C127.206 519.399 125.142 525.954 121.379 528.018C117.13 530.325 110.939 529.596 108.025 526.561C105.719 524.133 105.354 522.313 105.354 512.601C105.354 502.525 104.505 499.005 102.441 501.068Z" fill="white"/>
<path d="M142.501 501.068C142.137 501.433 141.773 508.595 141.773 516.85C141.773 529.353 142.016 531.781 143.594 531.781C145.051 531.781 145.415 529.718 145.415 520.856C145.415 510.78 145.658 509.566 148.45 506.895C150.028 505.196 152.456 503.86 153.791 503.86C156.462 503.86 158.161 501.918 156.462 500.947C154.884 499.854 148.692 502.404 146.993 504.71C145.536 506.531 145.415 506.531 145.415 504.225C145.415 501.433 143.837 499.733 142.501 501.068Z" fill="white"/>
<path d="M165.566 501.068C165.202 501.433 164.838 508.595 164.838 516.85C164.838 529.353 165.081 531.781 166.659 531.781C168.116 531.781 168.48 529.718 168.48 520.856C168.48 510.78 168.723 509.566 171.515 506.895C173.093 505.196 175.521 503.86 176.978 503.86C178.313 503.86 179.405 503.011 179.405 501.918C179.405 499.854 175.885 500.461 171.272 503.375C168.844 504.953 168.48 504.953 168.48 503.375C168.48 501.311 166.78 499.976 165.566 501.068Z" fill="white"/>
<path d="M193.123 502.04C188.267 504.103 184.261 510.416 184.261 515.757C184.261 525.226 190.695 531.781 200.043 531.781C205.505 531.781 212.668 528.746 211.575 526.926C211.09 526.197 209.39 526.44 207.326 527.533C199.557 531.539 190.695 528.504 188.146 520.856L186.811 517.214H200.164H213.396V514.179C213.396 509.202 210.24 504.346 205.627 502.161C200.65 499.854 198.222 499.733 193.123 502.04ZM207.691 507.624C213.518 513.936 212.546 514.786 198.829 514.786H186.689L188.267 510.78C190.088 506.167 196.644 502.404 201.135 503.375C202.956 503.739 205.748 505.681 207.691 507.624Z" fill="white"/>
<path d="M223.108 516C223.108 525.712 223.593 531.781 224.322 531.781C225.05 531.781 225.536 528.382 225.536 524.133C225.536 509.445 228.935 503.739 237.675 503.618C245.93 503.496 247.751 506.288 248.358 520.249C248.722 526.561 249.329 531.781 249.936 531.781C251.878 531.781 251.271 510.173 249.208 506.288C245.93 499.854 235.369 498.64 228.571 503.982L225.536 506.41V503.375C225.536 501.675 225.05 500.219 224.322 500.219C223.593 500.219 223.108 506.288 223.108 516Z" fill="white"/>
<path d="M270.816 501.068C266.567 501.918 261.104 508.109 260.255 512.965C259.162 518.792 261.226 524.983 265.717 528.746C270.816 532.995 279.799 532.995 284.655 528.746C288.418 525.469 286.233 524.498 282.106 527.533C277.978 530.689 270.695 529.839 266.689 525.833C263.775 522.92 263.168 521.22 263.168 516.607C263.168 511.994 263.775 510.294 266.689 507.381C271.302 502.889 278.707 502.161 282.956 506.046C284.412 507.381 285.505 507.502 286.355 506.653C289.39 503.618 277.736 499.49 270.816 501.068Z" fill="white"/>
<path d="M289.875 500.826C289.875 501.19 292.91 508.352 296.795 516.728C303.593 531.903 303.593 531.903 301.651 536.03C299.465 540.643 295.217 542.464 291.332 540.4C289.754 539.551 288.54 539.551 288.054 540.158C287.204 541.736 291.332 543.921 294.974 543.921C296.552 543.921 298.98 543.193 300.315 542.221C302.986 540.279 320.952 501.797 319.738 500.583C318.524 499.369 317.432 501.19 311.119 515.272L305.171 528.504L302.986 523.769C301.772 521.099 298.858 514.786 296.552 509.566C294.245 504.467 291.817 500.219 291.089 500.219C290.482 500.219 289.875 500.461 289.875 500.826Z" fill="white"/>
<path d="M404.351 501.068C400.223 501.918 394.518 508.231 393.547 512.965C392.575 518.549 394.882 524.983 399.252 528.746C404.351 532.995 413.334 532.995 418.19 528.746C421.953 525.469 419.768 524.498 415.641 527.533C411.513 530.689 404.229 529.839 400.223 525.833C397.31 522.92 396.703 521.22 396.703 516.607C396.703 511.994 397.31 510.294 400.223 507.381C404.836 502.889 412.242 502.161 416.49 506.046C417.947 507.381 419.04 507.502 419.889 506.653C422.924 503.618 411.27 499.49 404.351 501.068Z" fill="white"/>
<path d="M430.208 501.068C429.844 501.433 429.48 508.595 429.48 516.85C429.48 529.353 429.722 531.781 431.301 531.781C432.757 531.781 433.121 529.718 433.121 520.856C433.121 510.78 433.364 509.566 436.156 506.895C437.734 505.196 440.162 503.86 441.619 503.86C442.954 503.86 444.047 503.011 444.047 501.918C444.047 499.854 440.527 500.461 435.914 503.375C433.486 504.953 433.121 504.953 433.121 503.375C433.121 501.311 431.422 499.976 430.208 501.068Z" fill="white"/>
<path d="M448.903 501.433C448.903 502.404 451.938 509.809 455.458 517.821C461.649 531.417 462.014 532.51 460.314 535.666C457.886 540.4 454.244 542.1 450.36 540.4C446.596 538.58 445.14 539.915 448.175 542.221C451.574 544.649 455.58 544.285 459.1 541.129C462.014 538.58 478.038 504.832 478.038 501.311C478.038 498.034 474.76 503.254 469.54 515.029C466.627 521.584 463.834 526.926 463.47 526.926C462.985 526.926 460.314 521.584 457.401 515.029C452.302 503.132 448.903 497.791 448.903 501.433Z" fill="white"/>
<path d="M485.321 522.191C485.321 539.187 485.686 544.042 486.9 543.678C487.749 543.314 488.478 540.158 488.721 534.938L489.085 526.804L492.241 529.353C496.975 532.995 505.837 532.753 510.693 528.625C516.034 524.255 517.734 517.214 515.063 510.416C511.057 499.854 499.039 497.427 490.541 505.317L487.749 507.867V504.103C487.749 501.918 487.264 500.219 486.535 500.219C485.807 500.219 485.321 508.352 485.321 522.191ZM510.572 508.109C513.728 511.873 514.092 518.064 511.421 523.284C509.115 527.654 506.201 529.353 500.739 529.353C489.813 529.353 484.229 514.907 492.241 507.017C497.34 501.918 505.473 502.404 510.572 508.109Z" fill="white"/>
<path d="M553.667 502.039C542.62 506.774 541.77 524.619 552.332 530.082C557.794 532.874 567.142 531.781 571.148 527.897C579.281 519.763 576.004 505.681 565.078 501.554C560.586 499.854 558.401 499.976 553.667 502.039ZM569.327 507.259C574.668 512.479 572.969 524.255 566.535 527.532C555.002 533.602 543.348 521.584 549.297 509.93C552.939 502.768 563.5 501.311 569.327 507.259Z" fill="white"/>
<path d="M592.513 501.068C588.386 501.918 582.68 508.231 581.709 512.965C580.738 518.549 583.045 524.983 587.415 528.746C592.513 532.995 601.497 532.995 606.353 528.746C610.116 525.469 607.931 524.498 603.803 527.533C599.676 530.689 592.392 529.839 588.386 525.833C585.473 522.92 584.866 521.22 584.866 516.607C584.866 511.994 585.473 510.294 588.386 507.381C592.999 502.889 600.404 502.161 604.653 506.046C606.11 507.381 607.202 507.502 608.052 506.653C611.087 503.618 599.433 499.49 592.513 501.068Z" fill="white"/>
<path d="M617.642 512.48C617.642 524.376 617.764 524.741 621.163 528.261C625.654 532.753 633.788 533.238 638.765 529.232L641.921 526.804V529.232C641.921 530.689 642.65 531.781 643.742 531.781C645.32 531.781 645.563 529.596 645.32 516.607C644.956 499.733 642.771 494.999 642.164 509.93C641.8 521.584 641.314 523.891 638.037 526.926C635.245 529.596 628.689 530.203 624.926 528.14C621.648 526.44 620.07 520.37 620.07 509.809C620.07 504.225 619.585 500.219 618.856 500.219C618.128 500.219 617.642 505.074 617.642 512.48Z" fill="white"/>
<path d="M657.703 516C657.703 524.74 658.188 531.781 658.795 531.781C659.281 531.781 660.131 526.804 660.373 520.734C660.98 511.508 661.466 509.323 663.894 506.774C665.351 505.196 667.9 503.86 669.478 503.86C671.178 503.86 672.27 503.132 672.27 501.918C672.27 499.612 668.385 500.461 663.53 503.982L660.131 506.41V503.253C660.131 501.554 659.645 500.219 658.917 500.219C658.188 500.219 657.703 506.288 657.703 516Z" fill="white"/>
<path d="M680.768 516C680.768 533.845 682.71 537.487 683.438 520.977C683.803 511.508 684.167 509.687 686.716 507.017C688.416 505.317 690.965 503.861 692.543 503.861C694.243 503.861 695.335 503.132 695.335 501.918C695.335 499.248 689.751 500.704 685.988 504.103L683.196 506.653V503.496C683.196 501.675 682.71 500.219 681.982 500.219C681.253 500.219 680.768 506.288 680.768 516Z" fill="white"/>
<path d="M709.174 501.433C707.839 501.918 705.168 504.103 703.469 506.288C697.642 513.208 699.705 525.954 707.475 529.96C712.452 532.51 721.071 532.267 724.591 529.475C728.233 526.561 726.898 524.74 723.013 527.411C719.736 529.718 713.666 529.96 709.296 527.897C706.261 526.561 702.619 521.341 702.619 518.428C702.619 517.7 707.475 517.214 716.094 517.214H729.69L728.962 512.844C727.505 503.86 717.429 498.033 709.174 501.433ZM719.007 504.346C722.406 505.803 726.898 511.387 726.898 514.179C726.898 514.543 721.435 514.786 714.758 514.786C705.047 514.786 702.619 514.422 702.619 513.087C702.619 510.416 708.446 504.103 711.481 503.496C712.937 503.253 714.273 502.889 714.516 502.768C714.637 502.768 716.701 503.375 719.007 504.346Z" fill="white"/>
<path d="M739.037 516C739.037 525.712 739.523 531.781 740.251 531.781C740.98 531.781 741.465 527.775 741.465 522.07C741.465 510.173 743.408 505.56 749.113 504.103C753.726 502.889 759.675 504.225 761.86 507.138C762.71 508.473 763.317 513.329 763.317 520.492C763.317 529.718 763.681 531.781 765.137 531.781C767.93 531.781 767.687 513.208 764.773 507.502C761.01 499.854 751.905 498.276 744.622 503.982L741.465 506.41V503.375C741.465 501.675 740.98 500.219 740.251 500.219C739.523 500.219 739.037 506.288 739.037 516Z" fill="white"/>
<path d="M784.318 501.918C773.514 506.774 772.421 524.619 782.74 529.96C787.717 532.51 796.336 532.267 799.857 529.475C803.62 526.44 802.042 524.74 798.036 527.411C790.752 532.146 780.191 527.654 778.612 519.156C777.641 513.936 780.312 507.017 783.954 505.074C787.838 503.011 794.394 503.253 798.036 505.681C801.92 508.231 803.377 507.017 800.221 503.86C797.064 500.704 789.174 499.733 784.318 501.918Z" fill="white"/>
<path d="M805.805 501.433C805.805 502.161 808.84 509.323 812.482 517.335C818.794 531.417 819.037 532.146 817.337 535.545C814.788 540.279 811.146 542.1 807.504 540.4C803.984 538.822 802.284 540.886 805.683 542.586C809.447 544.649 812.724 544.164 816.002 541.129C819.765 537.973 836.518 501.797 834.818 500.704C833.726 500.097 824.5 518.428 822.193 525.59C820.979 529.353 820.372 528.382 813.696 513.208C808.597 501.797 805.805 497.548 805.805 501.433Z" fill="white"/>
<path d="M862.861 502.404C860.433 503.496 857.641 506.288 856.427 508.716C850.964 519.278 858.126 531.781 869.537 531.781C875.486 531.781 882.891 528.746 881.677 526.926C881.191 526.197 879.492 526.44 877.428 527.533C871.601 530.567 865.653 529.839 861.525 525.833C859.583 523.891 858.005 521.099 858.005 519.763C858.005 517.335 858.612 517.214 871.48 517.214H884.955L883.983 513.329C882.769 507.624 879.856 503.739 875.364 501.918C870.144 499.733 867.959 499.733 862.861 502.404ZM873.665 503.982C877.185 505.196 881.07 510.294 881.07 513.572C881.07 514.3 876.821 514.786 869.537 514.786C859.826 514.786 858.005 514.422 858.005 512.844C858.005 509.445 860.554 506.167 864.439 504.467C869.173 502.404 868.93 502.404 873.665 503.982Z" fill="white"/>
<path d="M889.568 501.433C889.568 502.161 891.753 505.439 894.423 508.838C897.094 512.237 899.279 515.393 899.279 515.879C899.279 516.364 896.851 520.006 893.816 523.769C887.747 531.539 887.625 531.781 889.932 531.781C890.66 531.66 893.574 528.746 896.244 525.105C898.915 521.463 901.343 518.428 901.707 518.428C902.071 518.428 904.499 521.463 907.049 525.105C909.719 528.746 912.633 531.781 913.482 531.781C915.546 531.781 915.061 530.81 908.748 522.92C906.199 519.642 904.135 516.486 904.135 515.879C904.135 515.272 906.32 511.994 908.991 508.595C913.604 502.647 915.061 499.612 912.754 500.461C912.147 500.583 909.355 503.739 906.684 507.26L901.586 513.693L896.851 507.624C891.753 501.19 889.568 499.369 889.568 501.433Z" fill="white"/>
<path d="M927.2 502.404C921.494 505.196 918.46 511.387 919.067 518.428C919.552 522.677 920.645 524.619 924.044 527.775C927.686 531.174 929.264 531.781 934.362 531.781C938.368 531.781 941.16 531.053 943.103 529.475C946.745 526.561 945.409 524.74 941.525 527.411C940.068 528.504 936.669 529.353 934.12 529.353C923.437 529.353 918.217 515.879 925.743 507.502C928.414 504.467 929.992 503.739 934.241 503.618C937.397 503.618 940.311 504.346 941.646 505.56C944.317 507.988 945.409 507.988 945.409 505.803C945.409 503.86 938.247 500.219 934.241 500.219C932.784 500.219 929.507 501.19 927.2 502.404Z" fill="white"/>
<path d="M997.367 502.161C994.817 503.254 992.754 504.589 992.754 505.196C992.754 506.653 993.725 506.531 999.552 504.467C1005.74 502.404 1010.96 503.496 1013.03 507.624C1016.3 513.936 1015.33 514.786 1006.11 514.786C998.581 514.786 997.124 515.15 994.575 517.821C992.875 519.399 991.54 521.827 991.54 523.284C991.54 524.619 992.875 527.168 994.575 528.747C998.459 532.753 1006.71 532.995 1011.45 529.232L1014.6 526.804V529.232C1014.6 530.689 1015.21 531.781 1015.82 531.781C1016.55 531.781 1017.03 526.926 1017.03 519.763C1017.03 508.959 1016.79 507.26 1014.24 504.467C1010.84 500.461 1003.68 499.49 997.367 502.161ZM1014.6 520.249C1014.6 524.983 1009.51 529.353 1004.29 529.353C997.974 529.353 995.182 527.533 995.182 523.284C995.182 518.671 997.731 517.335 1007.08 517.214C1014.36 517.214 1014.6 517.335 1014.6 520.249Z" fill="white"/>
<path d="M1029.9 501.068C1029.54 501.433 1029.17 508.595 1029.17 516.85C1029.17 529.353 1029.42 531.781 1030.99 531.781C1032.45 531.781 1032.81 529.718 1032.81 520.856C1032.81 510.78 1033.06 509.566 1035.85 506.895C1039.98 502.647 1047.5 502.404 1051.63 506.41C1053.69 508.352 1054.18 510.78 1054.42 520.249C1054.67 526.561 1055.39 531.781 1056 531.781C1056.61 531.781 1057.09 526.804 1057.09 520.856C1057.09 507.988 1055.39 503.618 1049.69 501.554C1044.35 499.733 1042.53 499.854 1037.31 502.525C1033.91 504.225 1032.81 504.467 1032.81 503.253C1032.81 501.311 1030.99 499.976 1029.9 501.068Z" fill="white"/>
<path d="M1076.88 501.068C1073 501.797 1067.29 507.988 1066.44 512.115C1064.5 521.706 1070.45 529.475 1080.52 530.325C1086.23 530.81 1087.44 530.446 1091.08 527.411L1095.09 524.012L1094.48 529.718C1094.12 532.874 1092.9 536.516 1091.69 537.851C1088.41 541.493 1081.25 542.1 1074.82 539.186C1068.87 536.637 1066.08 537.73 1070.81 540.886C1078.58 545.985 1092.78 543.799 1095.82 537.123C1097.52 533.238 1097.64 500.219 1095.94 500.219C1095.33 500.219 1094.73 501.554 1094.73 503.253V506.41L1091.33 503.86C1087.81 501.311 1081.49 499.976 1076.88 501.068ZM1091.21 507.017C1096.55 511.873 1094.97 523.041 1088.53 526.319C1079.19 531.174 1069.23 525.347 1069.23 515.029C1069.23 504.953 1083.31 499.854 1091.21 507.017Z" fill="white"/>
<path d="M1115.97 501.918C1110.26 504.467 1107.84 508.109 1107.11 514.543C1106.14 525.347 1112.09 531.781 1123.01 531.781C1126.53 531.781 1129.44 530.932 1131.27 529.475C1134.91 526.561 1133.57 524.74 1129.69 527.411C1125.32 530.567 1118.4 529.96 1114.27 526.076C1112.33 524.133 1110.39 521.463 1109.9 519.885C1109.17 517.214 1109.17 517.214 1122.53 517.214H1136V513.572C1136 508.473 1129.44 501.554 1123.86 500.826C1121.55 500.461 1118.03 500.947 1115.97 501.918ZM1130.29 507.624C1136.12 513.936 1135.15 514.786 1121.43 514.786C1114.76 514.786 1109.29 514.543 1109.29 514.179C1109.29 511.508 1113.78 505.803 1116.94 504.467C1122.04 502.282 1126.17 503.253 1130.29 507.624Z" fill="white"/>
<path d="M58 122.582V81L220 166L378 82V320H334V156.625C334 153.615 330.801 151.684 328.137 153.086L221.86 209.021C220.696 209.634 219.304 209.635 218.139 209.023L60.1415 126.124C58.8248 125.433 58 124.069 58 122.582Z" fill="white"/>
<path d="M99.853 198.878L63.853 180.06C61.1898 178.667 58 180.599 58 183.604V403H377V365C377 361.686 374.314 359 371 359H243C240.791 359 239 357.209 239 355V280.576C239 279.007 238.083 277.583 236.655 276.934L195 258V355C195 357.209 193.209 359 191 359H102V202.423C102 200.933 101.173 199.568 99.853 198.878Z" fill="#7424D1"/>
</svg>
